<?xml version="1.0" encoding="UTF-8"?>
<svg id="Layer_2" data-name="Layer 2" xmlns="http://www.w3.org/2000/svg" viewBox="0 0 64.32 131.63">
  <g id="Layer_12" data-name="Layer 12">
    <path d="M48.24,99.48c-8.88,0-16.08,8.4-16.08,18.76v.13c0,7.33-5.94,13.27-13.27,13.27h-.27c-7.33,0-13.27-5.94-13.27-13.27v-.13c0-5.18,2.1-9.87,5.49-13.27,3.39-3.39,8.08-5.49,13.27-5.49h24.12Z"/>
    <path d="M0,32.16H0c17.75,0,32.16,14.41,32.16,32.16H0V32.16H0Z"/>
    <path d="M64.32,32.16h0v32.16H32.16c0-17.75,14.41-32.16,32.16-32.16Z"/>
    <path d="M32.16,99.48H8.13c-4.49,0-8.13-3.64-8.13-8.13v-24.02c8.88,0,16.92,3.6,22.74,9.42,5.82,5.82,9.42,13.86,9.42,22.74Z"/>
    <path d="M64.32,67.32v24.02c0,4.49-3.64,8.13-8.13,8.13h-24.02c0-8.88,3.6-16.92,9.42-22.74,5.82-5.82,13.86-9.42,22.74-9.42Z"/>
    <path d="M32.16,0h0C32.16,17.75,17.75,32.16,0,32.16H0C0,14.41,14.41,0,32.16,0Z"/>
    <path d="M32.16,0h0C49.91,0,64.32,14.41,64.32,32.16h0c-17.75,0-32.16-14.41-32.16-32.16h0Z"/>
  </g>
</svg>