<?xml version="1.0" encoding="UTF-8"?>
<svg id="Layer_2" data-name="Layer 2" xmlns="http://www.w3.org/2000/svg" viewBox="0 0 241.49 87.94">
  <g id="p1">
    <g>
      <g>
        <path d="M81.64,48.73l-8.56-18.03c-.5-1.07-1.1-1.85-1.81-2.35-.71-.49-1.54-.74-2.49-.74s-1.78,.25-2.5,.74c-.72,.5-1.33,1.28-1.83,2.35l-8.55,18.03c-.41,.88-.53,1.67-.38,2.37,.16,.69,.52,1.24,1.1,1.65,.58,.4,1.3,.6,2.15,.6,1.09,0,1.9-.25,2.42-.75,.52-.49,1.01-1.3,1.49-2.41l.79-1.85h10.6l.79,1.85c.47,1.11,1,1.92,1.59,2.41,.59,.5,1.44,.75,2.52,.75,.83,0,1.53-.19,2.08-.59,.56-.39,.9-.93,1.03-1.63,.13-.7-.02-1.5-.44-2.4Zm-15.71-6.21l2.78-6.67h.07l2.81,6.67h-5.66Z"/>
        <path d="M104.97,32.72l-8.24,17.9c-.43,.94-.95,1.64-1.58,2.07-.63,.44-1.46,.66-2.5,.66s-1.86-.22-2.51-.66c-.65-.43-1.19-1.13-1.61-2.07l-8.24-17.9c-.45-.99-.59-1.87-.43-2.64,.17-.77,.55-1.38,1.16-1.81,.6-.44,1.35-.66,2.25-.66,1.14,0,2,.25,2.58,.74,.57,.5,1.07,1.23,1.47,2.21l5.45,12.64,5.48-12.68c.41-.97,.9-1.7,1.48-2.18,.58-.49,1.4-.73,2.47-.73,.85,0,1.56,.22,2.13,.66,.57,.43,.93,1.04,1.08,1.81,.15,.77,.01,1.65-.44,2.64Z"/>
        <path d="M127.02,46.21c-.52-.97-1.19-1.69-1.99-2.18-.41-.25-.86-.44-1.33-.56,.42-.13,.82-.29,1.2-.47,1.34-.65,2.36-1.57,3.07-2.77,.71-1.19,1.07-2.61,1.07-4.24,0-2.49-.79-4.45-2.36-5.88-1.58-1.43-3.81-2.15-6.69-2.15h-8.85c-1.23,0-2.18,.33-2.85,1-.68,.66-1.02,1.62-1.02,2.87v17.65c0,1.23,.34,2.18,1,2.86,.66,.67,1.61,1.01,2.84,1.01s2.2-.34,2.84-1.01c.64-.68,.96-1.63,.96-2.86v-5.43h1.17c.38,0,.75,.07,1.1,.23,.36,.15,.63,.41,.82,.76l3.05,5.58c.52,.94,1.12,1.64,1.81,2.07,.69,.44,1.56,.66,2.63,.66s1.95-.24,2.5-.73c.56-.48,.85-1.1,.89-1.84,.04-.75-.17-1.52-.62-2.33l-1.24-2.24Zm-12.11-7.49v-4.93h3.66c1.04,0,1.84,.2,2.39,.6,.56,.4,.84,1.02,.84,1.85s-.28,1.48-.84,1.88c-.55,.4-1.35,.6-2.39,.6h-3.66Z"/>
        <path d="M135.75,53.35c-1.23,0-2.18-.34-2.84-1.01-.66-.67-1-1.64-1-2.89V31.52c0-1.25,.33-2.22,1-2.89,.66-.67,1.61-1.01,2.84-1.01s2.17,.34,2.82,1.01c.65,.67,.98,1.64,.98,2.89v17.93c0,1.25-.32,2.22-.96,2.89-.64,.67-1.59,1.01-2.84,1.01Z"/>
        <path d="M146.61,53c-1.23,0-2.18-.34-2.86-1.01s-1.01-1.63-1.01-2.86V31.84c0-1.25,.33-2.21,1-2.88,.66-.66,1.61-.99,2.84-.99s2.17,.33,2.82,.99c.65,.66,.98,1.62,.98,2.88v14.84h7.78c1.04,0,1.84,.27,2.4,.82,.56,.54,.83,1.33,.83,2.34s-.28,1.8-.83,2.34c-.56,.54-1.36,.82-2.4,.82h-11.54Z"/>
        <path d="M192.99,30.41c.05,.81-.2,1.61-.75,2.42l-6.32,9.3v7.28c0,2.63-1.26,3.94-3.8,3.94-1.23,0-2.18-.34-2.84-1.01-.66-.68-.99-1.65-.99-2.93v-7.27l-6.39-9.38c-.45-.67-.64-1.4-.57-2.2,.07-.81,.4-1.5,.99-2.08,.59-.58,1.45-.87,2.56-.87,.78,0,1.48,.19,2.11,.57,.63,.38,1.23,1,1.8,1.88l3.42,5.23,3.46-5.27c.57-.87,1.16-1.49,1.78-1.86,.61-.37,1.32-.55,2.13-.55,1.06,0,1.89,.26,2.47,.8,.58,.53,.89,1.2,.94,2Z"/>
        <path d="M201.08,53c-1.28,0-2.25-.34-2.93-1.01s-1.01-1.65-1.01-2.93V31.91c0-1.28,.34-2.25,1.01-2.93s1.65-1.01,2.93-1.01h11.72c.97,0,1.7,.25,2.2,.75s.75,1.22,.75,2.17-.25,1.67-.75,2.17-1.23,.75-2.2,.75h-8.38v3.59h7.56c.97,0,1.7,.25,2.2,.75s.75,1.22,.75,2.17-.25,1.67-.75,2.17-1.23,.75-2.2,.75h-7.56v3.98h8.38c.97,0,1.7,.25,2.2,.75s.75,1.22,.75,2.17-.25,1.67-.75,2.17-1.23,.75-2.2,.75h-11.72Z"/>
        <path d="M241.49,31.19v18.75c0,1.02-.28,1.84-.83,2.47-.56,.63-1.31,.94-2.26,.94s-1.69-.17-2.24-.52c-.54-.34-1.12-.89-1.74-1.65l-8.87-10.74v9.32c0,1.16-.3,2.05-.91,2.67-.6,.61-1.48,.92-2.64,.92s-2.04-.31-2.65-.92c-.6-.62-.9-1.51-.9-2.67V31.37c0-1.21,.3-2.13,.9-2.79,.61-.65,1.42-.97,2.43-.97,.86,0,1.54,.17,2.05,.51,.5,.35,1.07,.9,1.68,1.65l8.88,10.76v-9.34c0-1.15,.3-2.04,.9-2.66,.61-.61,1.49-.92,2.65-.92s2.04,.31,2.64,.92c.61,.62,.91,1.51,.91,2.66Z"/>
      </g>
      <path d="M0,21.48H0c11.86,0,21.48,9.63,21.48,21.48H0V21.48H0Z"/>
      <path d="M42.97,21.48h0v21.48H21.48c0-11.86,9.63-21.48,21.48-21.48Z"/>
      <path d="M42.97,44.97v16.05c0,3.01-2.44,5.44-5.44,5.44h-5.3c-5.93,0-10.75,5.61-10.75,12.53v.09c0,4.9-3.97,8.86-8.86,8.86h-.18c-4.9,0-8.86-3.97-8.86-8.86v-.09c0-3.46,1.4-6.59,3.67-8.85,2.27-2.27,5.4-3.67,8.86-3.67H5.44C2.43,66.46,0,64.03,0,61.02v-16.05c5.93,0,11.3,2.41,15.19,6.3,3.88,3.88,6.29,9.25,6.29,15.19,0-5.94,2.41-11.31,6.29-15.19,3.89-3.89,9.26-6.3,15.2-6.3Z"/>
      <path d="M21.48,0h0C21.48,11.86,11.86,21.48,0,21.48H0C0,9.63,9.63,0,21.48,0Z"/>
      <path d="M21.48,0h0C33.34,0,42.97,9.63,42.97,21.48h0c-11.86,0-21.48-9.63-21.48-21.48h0Z"/>
    </g>
  </g>
</svg>